<svg width="32" height="32" viewBox="0 0 32 32" fill="none" xmlns="http://www.w3.org/2000/svg">
<path d="M26 9.33333C26.9362 13.7285 26.9362 18.2715 26 22.6667M6 9.33333C5.0638 13.7285 5.0638 18.2715 6 22.6667M9.33333 26C13.7285 26.9362 18.2715 26.9362 22.6667 26M9.33333 6C13.7285 5.0638 18.2715 5.0638 22.6667 6" stroke="black" stroke-width="2" stroke-linecap="round" stroke-linejoin="round"/>
<path d="M27.9998 22.6667H23.9998C23.2635 22.6667 22.6665 23.2636 22.6665 24V28C22.6665 28.7364 23.2635 29.3334 23.9998 29.3334H27.9998C28.7362 29.3334 29.3332 28.7364 29.3332 28V24C29.3332 23.2636 28.7362 22.6667 27.9998 22.6667Z" stroke="black" stroke-width="2" stroke-linecap="round" stroke-linejoin="round"/>
<path d="M27.9998 2.66669H23.9998C23.2635 2.66669 22.6665 3.26364 22.6665 4.00002V8.00002C22.6665 8.7364 23.2635 9.33335 23.9998 9.33335H27.9998C28.7362 9.33335 29.3332 8.7364 29.3332 8.00002V4.00002C29.3332 3.26364 28.7362 2.66669 27.9998 2.66669Z" stroke="black" stroke-width="2" stroke-linecap="round" stroke-linejoin="round"/>
<path d="M7.99984 22.6667H3.99984C3.26346 22.6667 2.6665 23.2636 2.6665 24V28C2.6665 28.7364 3.26346 29.3334 3.99984 29.3334H7.99984C8.73622 29.3334 9.33317 28.7364 9.33317 28V24C9.33317 23.2636 8.73622 22.6667 7.99984 22.6667Z" stroke="black" stroke-width="2" stroke-linecap="round" stroke-linejoin="round"/>
<path d="M7.99984 2.66669H3.99984C3.26346 2.66669 2.6665 3.26364 2.6665 4.00002V8.00002C2.6665 8.7364 3.26346 9.33335 3.99984 9.33335H7.99984C8.73622 9.33335 9.33317 8.7364 9.33317 8.00002V4.00002C9.33317 3.26364 8.73622 2.66669 7.99984 2.66669Z" stroke="black" stroke-width="2" stroke-linecap="round" stroke-linejoin="round"/>
</svg>
